<svg width="22" height="19" viewBox="0 0 22 19" fill="none" xmlns="http://www.w3.org/2000/svg">
<path d="M10.9908 1.58331C5.93075 1.58331 1.83325 5.12998 1.83325 9.49998C1.83325 13.87 5.93075 17.4166 10.9908 17.4166C16.0599 17.4166 20.1666 13.87 20.1666 9.49998C20.1666 5.12998 16.0599 1.58331 10.9908 1.58331ZM10.9999 15.8333C6.94825 15.8333 3.66659 12.9991 3.66659 9.49998C3.66659 6.00081 6.94825 3.16665 10.9999 3.16665C15.0516 3.16665 18.3333 6.00081 18.3333 9.49998C18.3333 12.9991 15.0516 15.8333 10.9999 15.8333Z" fill="#EA8698"/>
<path d="M11.4583 5.54169H10.0833V10.2917L14.8958 12.7854L15.5833 11.8117L11.4583 9.69794V5.54169Z" fill="#EA8698"/>
</svg>
