<svg width="107" height="82" viewBox="0 0 107 82" fill="none" xmlns="http://www.w3.org/2000/svg">
<path d="M50.3039 65.9676H4.37408V3.76988H96.2336V34.8687C96.2336 35.9103 97.2118 36.7537 98.421 36.7537C99.6301 36.7537 100.608 35.9108 100.608 34.8687V1.88494C100.608 0.843399 99.6301 0 98.421 0H2.18732C0.978144 0.000475155 0 0.843399 0 1.88494V67.8521C0 68.8936 0.978144 69.737 2.18732 69.737H50.3044C51.513 69.737 52.4917 68.8941 52.4917 67.8521C52.4912 66.8105 51.513 65.9676 50.3039 65.9676Z" fill="#EA8698"/>
<path d="M50.3039 58.4283H13.1228V46.9576L24.2783 37.3443L39.1671 46.7552C40.0063 47.2869 41.1664 47.2337 41.9351 46.6265L65.2672 28.2698L74.7696 39.7329C75.4704 40.5796 76.8373 40.7764 77.8198 40.171C78.8024 39.5671 79.0307 38.3892 78.3282 37.5425L67.3927 24.3488C67.0299 23.9089 66.4659 23.6257 65.8445 23.5701C65.2297 23.5131 64.6011 23.6879 64.1401 24.0523L40.3101 42.8019L25.3529 33.3483C24.4817 32.798 23.2748 32.8769 22.5122 33.536L13.1228 41.6274V11.3092H87.4855V34.8688C87.4855 35.9103 88.4636 36.7537 89.6728 36.7537C90.8814 36.7537 91.8601 35.9108 91.8601 34.8688V9.42424C91.8601 8.38271 90.882 7.53931 89.6728 7.53931H10.936C9.72741 7.53931 8.74872 8.38223 8.74872 9.42424V60.3133C8.74872 61.3548 9.72686 62.1982 10.936 62.1982H50.3044C51.513 62.1982 52.4917 61.3553 52.4917 60.3133C52.4912 59.2722 51.513 58.4283 50.3039 58.4283Z" fill="#EA8698"/>
<path d="M83.0745 40.3881C69.882 40.3881 59.149 49.7216 59.149 61.194C59.149 72.6665 69.882 82 83.0745 82C96.2671 82 107 72.6665 107 61.194C107 49.7216 96.2675 40.3881 83.0745 40.3881ZM83.0745 79.0286C71.766 79.0286 62.5668 71.0288 62.5668 61.1948C62.5668 51.3607 71.766 43.361 83.0745 43.361C94.383 43.361 103.582 51.3607 103.582 61.1948C103.582 71.0288 94.3835 79.0286 83.0745 79.0286Z" fill="#EA8698"/>
<path d="M84.9852 48.9552H81.1639V59.9318H67.7888V63.0678H81.1639V74.0448H84.9852V63.0678H98.3602V59.9318H84.9852V48.9552Z" fill="#EA8698"/>
<path d="M24.0583 22.6178C24.0583 26.7758 27.9819 30.157 32.807 30.157C37.6321 30.157 41.5557 26.7758 41.5557 22.6178C41.5557 18.4597 37.6321 15.0785 32.807 15.0785C27.9819 15.0785 24.0583 18.4597 24.0583 22.6178ZM37.1811 22.6178C37.1811 24.6956 35.2182 26.3872 32.807 26.3872C30.3958 26.3872 28.4329 24.6956 28.4329 22.6178C28.4329 20.5399 30.3958 18.8484 32.807 18.8484C35.2182 18.8484 37.1811 20.5399 37.1811 22.6178Z" fill="#EA8698"/>
</svg>
