<svg width="26" height="21" viewBox="0 0 26 21" fill="none" xmlns="http://www.w3.org/2000/svg">
<path d="M25.9295 12.6772L24.2314 9.92747C24.1683 9.82439 24.0671 9.73532 23.9488 9.6706L24.7076 4.34195C24.8453 3.38443 24.0456 2.59081 22.7621 2.40969C22.5504 2.37171 22.0849 2.29374 21.5426 2.20446L21.7537 1.30747C21.7874 1.16562 21.7515 1.02126 21.6526 0.900957C21.554 0.781031 21.4052 0.700424 21.2366 0.674478L17.0876 0.0101725C16.9162 -0.0175768 16.742 0.0118911 16.5967 0.0931268C16.4523 0.173859 16.3544 0.295797 16.3209 0.436723L16.1085 1.33522C15.5669 1.25101 15.1013 1.17983 14.8874 1.14974C13.8599 0.966515 12.9096 1.26945 12.4394 1.89775C12.3477 1.87926 12.252 1.8692 12.1536 1.8692H11.9413V0.755043C11.9413 0.581086 11.7707 0.440663 11.5605 0.440663H9.86898C9.80347 0.440663 9.73898 0.454496 9.68211 0.480904L8.85137 0.867381C8.66856 0.952473 8.60356 1.14403 8.70665 1.29536C8.81024 1.44668 9.04231 1.50033 9.22563 1.41524L9.96907 1.06942H11.1796V1.86916H10.9674C10.3027 1.86916 9.76188 2.316 9.76188 2.86591V3.23227H9.42013C8.90927 3.23227 8.49342 3.57557 8.49342 3.99722V6.07372C8.38932 6.06701 8.28826 6.05863 8.18975 6.05024C7.64537 6.00455 7.13101 5.96096 6.48304 6.22755C5.83157 6.49079 5.55989 6.85376 5.27246 7.23856C4.98098 7.62797 4.65496 8.06387 3.83185 8.58448C3.56728 8.15231 3.1458 7.89037 2.67155 7.8648C2.27546 7.84384 1.90684 7.99349 1.68594 8.26637C1.41934 8.59626 1.41781 9.03802 1.68086 9.47816C1.74434 9.58462 1.81238 9.68816 1.88551 9.78792C1.83879 9.83026 1.79918 9.87679 1.76871 9.92667L0.0686048 12.6793C-0.0253405 12.8343 -0.0228014 12.9991 0.076222 13.1307C0.169152 13.2548 0.337238 13.329 0.525636 13.329H1.12684V16.7501C1.12684 16.9241 1.29746 17.0645 1.50769 17.0645C1.71793 17.0645 1.88855 16.9241 1.88855 16.7501V13.329H10.8263C11.0974 13.329 11.3899 13.1751 11.5215 12.9626L12.6188 11.1841V20.3712H1.88855V18.2029C1.88855 18.029 1.71793 17.8886 1.50769 17.8886C1.29746 17.8886 1.12684 18.029 1.12684 18.2029V20.4869C1.12684 20.7699 1.40562 21 1.74789 21H24.2518C24.5941 21 24.8729 20.7699 24.8729 20.4869V13.3289H25.4736C25.6635 13.3289 25.8321 13.2543 25.925 13.129C26.0235 12.9961 26.025 12.8314 25.9295 12.6772ZM17.048 0.64392L20.9858 1.27436L20.7958 2.08177C19.9487 1.94369 17.6614 1.57834 16.857 1.45192L17.048 0.64392ZM14.7334 1.7655C14.7393 1.76655 17.2691 2.15609 18.2355 2.31139L16.493 8.30833C16.444 8.47717 16.57 8.64685 16.7746 8.68734C16.8044 8.69325 16.8343 8.6961 16.8637 8.6961C17.0358 8.6961 17.1918 8.59915 17.2337 8.45495L18.9838 2.4319C19.8858 2.57685 22.6207 3.02763 22.6268 3.02847C23.3602 3.13008 24.0541 3.55273 23.9513 4.26826L23.1976 9.56035H21.663L22.2064 5.40862C22.2266 5.24837 22.0921 5.09679 21.9001 5.06619L20.1844 4.79164C19.9774 4.75835 19.778 4.87002 19.738 5.04041C19.6979 5.21085 19.8329 5.37584 20.0393 5.40887L21.4111 5.62839L20.8962 9.56035H14.627V4.54315L15.6565 4.70759C15.6809 4.71149 15.7053 4.71338 15.7293 4.71338C15.9081 4.71338 16.0676 4.60896 16.1028 4.45869C16.1428 4.28825 16.0077 4.12331 15.8012 4.09032L14.619 3.90148C14.5617 3.52489 14.1723 3.23227 13.7009 3.23227H13.3591V2.86591C13.3591 2.62531 13.2556 2.40445 13.0835 2.23208C13.4221 1.7668 14.1291 1.65601 14.7334 1.7655ZM10.5236 2.86591C10.5236 2.66303 10.7226 2.49788 10.9674 2.49788H12.1536C12.2437 2.49788 12.3275 2.52039 12.3976 2.55883C12.4004 2.56055 12.4034 2.5621 12.4063 2.56377C12.5216 2.6303 12.5974 2.74087 12.5974 2.86591V3.23227H10.5235V2.86591H10.5236ZM5.92094 7.56845C6.18754 7.21131 6.36375 6.97578 6.82023 6.79134C7.2732 6.60523 7.60729 6.63331 8.11256 6.67565C8.72701 6.72763 9.48055 6.79092 10.7018 6.4996L11.2665 7.44395C11.2685 7.4473 11.27 7.45066 11.2721 7.45401C10.2468 7.6833 9.68013 7.60198 9.17389 7.52862C8.67268 7.45611 8.19894 7.38778 7.5337 7.66108C6.87004 7.92977 6.59481 8.32124 6.30383 8.7358C6.12914 8.98437 5.93313 9.2627 5.62082 9.56027H4.41584L4.17513 9.15786C5.19832 8.53502 5.59645 8.00271 5.92094 7.56845ZM10.9796 5.57704C10.8359 5.33685 10.8196 5.11763 10.9349 4.97557C11.0065 4.88754 11.1207 4.84101 11.2492 4.84772C11.4554 4.85904 11.6555 5.00281 11.7992 5.243C12.278 6.044 12.3278 6.81947 12.1577 7.58567C12.1008 7.44315 12.0312 7.30315 11.9495 7.16608L10.9796 5.57704ZM11.3635 9.56031H6.5811C6.73496 9.37546 6.85582 9.2036 6.96246 9.05144C7.23414 8.66496 7.41289 8.41014 7.87089 8.22487C8.31421 8.04295 8.58838 8.08235 9.04236 8.14816C9.57912 8.22571 10.2961 8.32882 11.5194 8.05007C11.6433 8.53921 11.5915 9.05605 11.3635 9.56031ZM2.31964 8.6155C2.38819 8.53041 2.49889 8.48555 2.62229 8.49226C2.82288 8.50274 3.01839 8.64358 3.15803 8.87706L3.56632 9.56027H2.61112C2.52225 9.44668 2.43897 9.32637 2.36432 9.20062C2.22417 8.96676 2.20792 8.7534 2.31964 8.6155ZM10.8435 12.6755C10.8379 12.683 10.8285 12.6984 10.8074 12.7002H0.910507L2.44659 10.2129C2.45218 10.2054 2.46132 10.1899 2.50042 10.189H12.3785L10.8435 12.6755ZM12.1881 9.56031C12.7828 8.39128 13.5297 6.71719 12.4821 4.96467C12.2155 4.51825 11.7844 4.24667 11.299 4.22026C10.8978 4.19846 10.5251 4.3502 10.3017 4.62602C10.0315 4.9601 10.0295 5.40774 10.2961 5.85541L10.3408 5.92961C9.91829 6.02266 9.5649 6.06667 9.25514 6.08302V3.9973C9.25514 3.92353 9.3308 3.86107 9.42018 3.86107H13.7009C13.7903 3.86107 13.8654 3.92353 13.8654 3.9973V9.56035H12.1881V9.56031ZM20.6937 12.699C20.6937 12.699 20.6937 12.699 20.6932 12.699C20.4829 12.699 20.3128 12.8398 20.3123 13.0133C20.3123 13.1869 20.4829 13.3277 20.6932 13.3277L24.1111 13.329V20.3712H13.3804V11.1841L14.4788 12.9626C14.6098 13.1751 14.9028 13.3289 15.175 13.3289L18.9347 13.3277C19.1449 13.3277 19.3155 13.1868 19.3155 13.0133C19.315 12.8398 19.1449 12.6989 18.9347 12.6989C18.9341 12.6989 18.9341 12.6989 18.9341 12.6989L15.1932 12.7002C15.1717 12.6953 15.1618 12.683 15.1572 12.6771L13.6211 10.189H23.518C23.5338 10.189 23.5454 10.1936 23.5525 10.212L25.0891 12.7002L20.6937 12.699Z" fill="#EA8698"/>
</svg>
