<svg width="31" height="22" viewBox="0 0 31 22" fill="none" xmlns="http://www.w3.org/2000/svg">
<path d="M25.5312 8.48761C26.7653 7.65335 27.5784 6.23994 27.5784 4.63987C27.5784 2.08151 25.5003 0.00012122 22.9461 0.00012122C20.3918 0.00012122 18.3137 2.08151 18.3137 4.63987C18.3137 6.23921 19.126 7.65207 20.3593 8.48652C19.4609 8.79113 18.6197 9.25499 17.873 9.86318C17.2411 9.25451 16.3931 8.90393 15.5001 8.90393C14.6071 8.90393 13.7591 9.25463 13.1276 9.86318C12.3806 9.25499 11.5393 8.79113 10.6408 8.48646C11.874 7.65201 12.6864 6.23915 12.6864 4.63975C12.6864 2.08139 10.6083 0 8.05401 0C5.50002 0 3.42223 2.08139 3.42223 4.63975C3.42223 6.23982 4.23519 7.65317 5.46914 8.48749C2.29721 9.567 0.00768945 12.5764 0.000847656 16.1123C0.000666016 16.1177 0 16.1228 0 16.1281C0 17.0628 0.53027 18.4422 3.05665 19.7061C4.85683 20.6066 7.33065 21.2836 10.2107 21.6636C11.9001 21.8868 13.6797 22 15.5001 22C17.3208 22 19.1006 21.8868 20.7899 21.6636C23.6698 21.2836 26.1434 20.6066 27.9435 19.7061C30.4697 18.4422 31 17.0628 31 16.1281C31 12.5854 28.708 9.56876 25.5312 8.48761ZM19.5294 4.63987C19.5294 2.7529 21.0621 1.21778 22.9461 1.21778C24.83 1.21778 26.3627 2.75296 26.3627 4.63987C26.3627 6.52654 24.83 8.06135 22.9461 8.06135C21.0621 8.06135 19.5294 6.52654 19.5294 4.63987ZM13.6864 11.0727C14.0994 10.4772 14.7773 10.1216 15.5 10.1216C16.2231 10.1216 16.9012 10.4772 17.3142 11.0727C17.3142 11.0729 17.3143 11.073 17.3144 11.0731C17.5721 11.4442 17.7082 11.8799 17.7082 12.3334C17.7082 13.553 16.7176 14.5451 15.4999 14.5451C14.2826 14.5451 13.2923 13.5529 13.2923 12.3333C13.2923 11.8792 13.4283 11.4436 13.6864 11.0727ZM4.63783 4.63987C4.63783 2.7529 6.17027 1.21778 8.05388 1.21778C9.93786 1.21778 11.4705 2.75296 11.4705 4.63987C11.4705 6.52654 9.9378 8.06135 8.05388 8.06135C6.17027 8.06135 4.63783 6.52654 4.63783 4.63987ZM9.6826 20.3586C7.23136 19.9848 5.13886 19.3866 3.59994 18.6168C2.06689 17.8499 1.22093 16.9689 1.21602 16.1354C1.21602 16.133 1.21639 16.1306 1.21639 16.1282C1.21633 12.3516 4.28369 9.27901 8.05395 9.27901C9.65795 9.27901 11.1883 9.83401 12.4129 10.8506C12.1921 11.3102 12.0767 11.8141 12.0767 12.3334C12.0767 13.3933 12.5593 14.3423 13.3158 14.9719C11.1911 15.8371 9.68811 17.9249 9.6826 20.3586ZM20.1026 20.5216C18.6241 20.6944 17.0788 20.7825 15.5 20.7825C13.9215 20.7825 12.3765 20.6944 10.898 20.5216V20.3721C10.898 17.8305 12.9624 15.7628 15.5 15.7628C18.0379 15.7628 20.1026 17.8305 20.1026 20.3721V20.5216ZM27.4002 18.6167C25.8614 19.3866 23.7692 19.9847 21.3182 20.3586C21.3127 17.9248 19.8095 15.8371 17.6847 14.9718C18.4414 14.3422 18.9241 13.3932 18.9241 12.3333C18.9241 11.8146 18.8087 11.3106 18.5876 10.8505C19.8117 9.83389 21.3419 9.27889 22.9462 9.27889C26.7167 9.27895 29.7843 12.3515 29.7843 16.128C29.7843 16.9638 28.9377 17.8476 27.4002 18.6167Z" fill="#EA8698"/>
</svg>
