<svg width="34" height="42" viewBox="0 0 34 42" fill="none" xmlns="http://www.w3.org/2000/svg">
<path d="M17.9126 31.3513V38.0578C17.9126 38.3897 18.1897 38.6586 18.5317 38.6586C18.8736 38.6586 19.1507 38.3897 19.1507 38.0578V31.3513C19.1507 31.0194 18.8736 30.7505 18.5317 30.7505C18.1897 30.7505 17.9126 31.0195 17.9126 31.3513Z" fill="#EA8698"/>
<path d="M18.5314 28.3475C18.1895 28.3475 17.9124 28.6165 17.9124 28.9483C17.9124 29.2802 18.1895 29.5492 18.5314 29.5492C18.8733 29.5492 19.1505 29.2802 19.1505 28.9483C19.1505 28.6165 18.8733 28.3475 18.5314 28.3475Z" fill="#EA8698"/>
<path d="M33.398 10.4396L30.2363 7.37054V2.79266C30.2364 1.78722 29.3936 0.969238 28.3578 0.969238H2.4019C1.37895 0.969238 0.546753 1.77697 0.546753 2.76991V32.9806C0.546753 33.9735 1.37895 34.7812 2.4019 34.7812H3.45127V35.785C3.45127 36.7778 4.28346 37.5856 5.30633 37.5856H8.5789C8.92088 37.5856 9.19797 37.3166 9.19797 36.9848C9.19797 36.6529 8.92088 36.3839 8.5789 36.3839H5.30633C4.96617 36.3839 4.68941 36.1153 4.68941 35.785V11.6228C4.68941 11.2909 4.41231 11.022 4.07034 11.022C3.72836 11.022 3.45127 11.2909 3.45127 11.6228V33.5795H2.4019C2.06174 33.5795 1.78489 33.3108 1.78489 32.9805V2.76991C1.78489 2.43963 2.06174 2.17086 2.4019 2.17086H28.3578C28.7109 2.17086 28.9982 2.44972 28.9982 2.79266V6.16875L26.7121 3.94967C26.5961 3.83696 26.4386 3.77367 26.2743 3.77367H5.30625C4.28338 3.77367 3.45118 4.5814 3.45118 5.57435V8.8253C3.45118 9.15719 3.72828 9.42612 4.07025 9.42612C4.41223 9.42612 4.68933 9.15719 4.68933 8.8253V5.57419C4.68933 5.2439 4.96609 4.97514 5.30625 4.97514H25.6552V10.8633C25.6552 11.1951 25.9323 11.464 26.2742 11.4641L32.3411 11.465V35.7848C32.3411 36.1151 32.0643 36.3838 31.7241 36.3838H28.4822C28.1402 36.3838 27.8631 36.6527 27.8631 36.9846C27.8631 37.3165 28.1402 37.5854 28.4822 37.5854H31.7241C32.7471 37.5854 33.5793 36.7777 33.5793 35.7848V10.8643C33.5794 10.705 33.5142 10.5522 33.398 10.4396ZM26.8934 10.2626V5.82509L31.4657 10.2633L26.8934 10.2626Z" fill="#EA8698"/>
<path d="M11.1257 15.2683H25.9356C26.2775 15.2683 26.5546 14.9994 26.5546 14.6675C26.5546 14.3356 26.2775 14.0667 25.9356 14.0667H11.1257C10.7837 14.0667 10.5066 14.3356 10.5066 14.6675C10.5066 14.9994 10.7838 15.2683 11.1257 15.2683Z" fill="#EA8698"/>
<path d="M11.1257 18.8125H25.9356C26.2775 18.8125 26.5546 18.5435 26.5546 18.2117C26.5546 17.8798 26.2775 17.6108 25.9356 17.6108H11.1257C10.7837 17.6108 10.5066 17.8798 10.5066 18.2117C10.5066 18.5435 10.7838 18.8125 11.1257 18.8125Z" fill="#EA8698"/>
<path d="M25.9355 21.2257H23.0097C22.6677 21.2257 22.3906 21.4946 22.3906 21.8265C22.3906 22.1584 22.6677 22.4273 23.0097 22.4273H25.9355C26.2775 22.4273 26.5546 22.1584 26.5546 21.8265C26.5546 21.4946 26.2775 21.2257 25.9355 21.2257Z" fill="#EA8698"/>
<path d="M11.1257 22.4273H20.0962C20.4381 22.4273 20.7152 22.1584 20.7152 21.8265C20.7152 21.4946 20.4381 21.2257 20.0962 21.2257H11.1257C10.7837 21.2257 10.5066 21.4946 10.5066 21.8265C10.5066 22.1584 10.7838 22.4273 11.1257 22.4273Z" fill="#EA8698"/>
<path d="M18.5317 25.0216C14.8637 25.0216 11.5605 27.2696 10.3123 30.6153C10.1959 30.9274 10.3622 31.2717 10.6836 31.3847C11.0054 31.4976 11.36 31.3363 11.4764 31.0244C12.5478 28.1526 15.3831 26.2232 18.5317 26.2232C22.6677 26.2232 26.0328 29.4889 26.0328 33.5031C26.0328 37.5171 22.6677 40.7829 18.5317 40.7829C14.3956 40.7829 11.0306 37.5171 11.0306 33.5031C11.0306 33.1712 10.7535 32.9023 10.4116 32.9023C10.0696 32.9023 9.79248 33.1712 9.79248 33.5031C9.79248 38.1798 13.7128 41.9845 18.5317 41.9845C23.3505 41.9845 27.2709 38.1798 27.2709 33.5031C27.2709 28.8264 23.3505 25.0216 18.5317 25.0216Z" fill="#EA8698"/>
</svg>
