<svg width="21" height="19" viewBox="0 0 21 19" fill="none" xmlns="http://www.w3.org/2000/svg">
<path d="M2.92901 18.8158H1.50317L2.51141 17.7451C3.05504 17.1678 3.39452 16.4169 3.48579 15.6024C2.0672 14.6137 1.02986 13.3131 0.474579 11.8214C-0.0803128 10.3309 -0.150043 8.69014 0.272947 7.07641C0.780472 5.1401 1.97085 3.37522 3.62474 2.10683C5.42198 0.728547 7.65935 0 10.095 0C13.1633 0 15.7495 0.936148 17.5739 2.70717C19.2175 4.30271 20.1227 6.45486 20.1227 8.76724C20.1227 9.89067 19.9073 10.9838 19.4825 12.0162C19.0429 13.0846 18.3992 14.0359 17.5692 14.8436C15.7423 16.6216 13.1577 17.5614 10.095 17.5614C8.95796 17.5614 7.77152 17.4002 6.71225 17.1044C5.70961 18.1967 4.35094 18.8158 2.92901 18.8158V18.8158ZM10.095 1.25439C5.21114 1.25439 2.21438 4.34741 1.41088 7.4128C0.651602 10.3096 1.77087 13.0468 4.40496 14.7349L4.69928 14.9235L4.69023 15.2884C4.67227 16.0107 4.51013 16.7063 4.21991 17.3352C4.92662 17.0813 5.5679 16.6209 6.07007 15.9909L6.31978 15.6776L6.69009 15.7952C7.72927 16.1253 8.93847 16.307 10.095 16.307C16.1732 16.307 18.9415 12.3986 18.9415 8.76724C18.9415 6.8114 18.1728 4.98803 16.7769 3.63304C15.1739 2.07693 12.8633 1.25439 10.095 1.25439V1.25439Z" fill="#EA8698"/>
</svg>
