<svg width="32" height="26" viewBox="0 0 32 26" fill="none" xmlns="http://www.w3.org/2000/svg">
<path d="M31.6595 16.387C31.0508 15.6043 29.8251 15.3972 28.9278 15.9248L24.8441 18.3162L24.8322 10.8727L26.2509 12.0356C26.5526 12.2828 26.946 12.4189 27.359 12.4189C27.3597 12.4189 27.3606 12.4189 27.3614 12.4189C27.8073 12.4184 28.2378 12.2548 28.5426 11.9702C28.8386 11.6936 28.9939 11.3328 28.9798 10.954C28.9657 10.5753 28.7838 10.224 28.4678 9.96496L25.7781 7.76029C25.5939 7.60935 25.3049 7.61761 25.1324 7.77872C24.96 7.93983 24.9694 8.1927 25.1535 8.34364L27.8432 10.5483C27.9812 10.6614 28.0606 10.8147 28.0667 10.9801C28.0729 11.1454 28.0051 11.3029 27.8758 11.4236C27.7408 11.5497 27.5577 11.6193 27.3601 11.6195C27.3597 11.6195 27.3594 11.6195 27.359 11.6195C27.1788 11.6195 27.0071 11.5601 26.8754 11.4522C26.8754 11.4521 26.8754 11.4521 26.8754 11.4521L16.1952 2.69781C16.0192 2.5536 15.7454 2.55382 15.5698 2.69857L4.91744 11.4791C4.77988 11.5925 4.6 11.6519 4.411 11.6473C4.222 11.6424 4.04656 11.5733 3.91694 11.4528C3.78731 11.3325 3.719 11.1751 3.72469 11.0098C3.73031 10.8444 3.80925 10.6909 3.94681 10.5775L15.3954 1.14069C15.6667 0.916965 16.0925 0.916418 16.3646 1.13954L23.0625 6.62973C23.2466 6.78061 23.5356 6.77241 23.7081 6.6113C23.8806 6.45019 23.8711 6.19732 23.6871 6.04638L16.9892 0.556192C16.3659 0.0451917 15.3907 0.0463402 14.769 0.558871L11.1041 3.57981L11.1031 3.04097C11.1028 2.87111 11.0269 2.71154 10.8895 2.59166C10.7523 2.47195 10.5702 2.40605 10.3764 2.40605C10.3761 2.40605 10.3757 2.40605 10.3754 2.40605L7.75369 2.40928C7.55956 2.4095 7.37725 2.47589 7.24019 2.59615C7.10319 2.7164 7.02781 2.87615 7.02812 3.04606L7.03538 6.93363L3.32044 9.99575C3.00519 10.2556 2.8245 10.6073 2.81156 10.986C2.79862 11.3648 2.95506 11.7253 3.252 12.001C3.54888 12.2769 3.95081 12.435 4.38375 12.4464C4.40031 12.4468 4.41687 12.447 4.43344 12.447C4.84812 12.447 5.24081 12.3108 5.54388 12.0609L6.95944 10.8941L6.96506 14.41C6.50706 14.3517 6.04369 14.321 5.57819 14.321H4.79663V14.0814C4.79663 13.2769 4.04856 12.6223 3.12913 12.6223H1.6675C0.748062 12.6223 0 13.2768 0 14.0813V20.344C0 20.5648 0.2045 20.7437 0.45675 20.7437C0.709 20.7437 0.9135 20.5648 0.9135 20.344V14.0813C0.9135 13.7176 1.25175 13.4216 1.6675 13.4216H3.12906C3.54481 13.4216 3.88306 13.7176 3.88306 14.0813V14.7206V22.9126V23.5456C3.88306 23.9094 3.54481 24.2054 3.12906 24.2054H1.6675C1.25175 24.2054 0.9135 23.9094 0.9135 23.5456V22.8463C0.9135 22.6256 0.709 22.4466 0.45675 22.4466C0.2045 22.4466 0 22.6256 0 22.8463V23.5456C0 24.3501 0.748062 25.0047 1.6675 25.0047H3.12906C4.0485 25.0047 4.79656 24.3502 4.79656 23.5456V23.4913L11.4856 25.7077C11.4979 25.7118 11.5105 25.7154 11.5232 25.7185C11.8141 25.7904 12.1048 25.8264 12.3918 25.8264C12.547 25.8264 12.7012 25.8159 12.8538 25.7948L22.6839 24.5549C22.6862 24.5546 22.6884 24.5543 22.6908 24.5539C23.5265 24.4372 24.3149 24.128 24.9708 23.66C24.9764 23.656 24.9821 23.6518 24.9875 23.6474L31.3382 18.6497C32.0778 18.0752 32.2158 17.1024 31.6595 16.387ZM10.1898 3.20564L10.1919 4.33165L7.94744 6.18173L7.94187 3.20832L10.1898 3.20564ZM15.8838 3.53781L23.9174 10.1228L23.9314 18.8506L22.6382 19.6079L21.2687 19.5407L21.2326 19.2224C21.1051 18.1014 20.1594 17.1997 18.9088 16.9845L18.9006 11.7922C18.8999 11.3937 18.5292 11.0699 18.0739 11.0699C18.0735 11.0699 18.0732 11.0699 18.0728 11.0699L13.7194 11.0753C13.4986 11.0756 13.2911 11.151 13.1352 11.2878C12.9792 11.4246 12.8936 11.6064 12.8939 11.7996L12.9011 16.3266C12.0388 16.1542 11.2154 15.8693 10.4456 15.4753C10.3496 15.4261 10.2526 15.3786 10.1547 15.3325C10.1166 15.3145 10.0779 15.2976 10.0394 15.28C9.97994 15.2529 9.92056 15.2255 9.86044 15.1994C9.81256 15.1786 9.76412 15.159 9.71587 15.1389C9.66469 15.1176 9.61356 15.0961 9.562 15.0756C9.5095 15.0548 9.45656 15.0349 9.40369 15.0149C9.35538 14.9966 9.30706 14.9783 9.25844 14.9607C9.20406 14.9411 9.14938 14.9222 9.09463 14.9035C9.04606 14.8868 8.99744 14.8703 8.94862 14.8544C8.89444 14.8366 8.84 14.8195 8.78544 14.8027C8.73425 14.7869 8.683 14.7715 8.6315 14.7565C8.57925 14.7412 8.52687 14.7263 8.47425 14.7118C8.41819 14.6963 8.36187 14.6815 8.3055 14.6669C8.25706 14.6545 8.20869 14.642 8.16 14.6302C8.09644 14.6147 8.03256 14.6002 7.96863 14.5859C7.93869 14.5792 7.90894 14.5716 7.87881 14.5651L7.87175 10.142L15.8838 3.53781ZM17.9952 16.8845L14.1749 16.4996L13.8149 16.4634L13.8076 11.8745L17.9872 11.8693L17.9952 16.8845ZM30.7296 18.0537L24.3851 23.0466C23.8564 23.4217 23.2222 23.6698 22.5501 23.7642L12.7242 25.0035C12.7222 25.0038 12.7202 25.0041 12.7181 25.0044L12.7113 25.0053C12.4136 25.0465 12.1036 25.0291 11.7898 24.9538L4.79663 22.6365V15.1203H5.57819C6.2435 15.1203 6.90431 15.1875 7.54781 15.318C7.57175 15.3229 7.59562 15.3279 7.6195 15.3329C7.69856 15.3496 7.77744 15.3668 7.85594 15.3854C7.86281 15.387 7.86963 15.3888 7.8765 15.3904C7.95519 15.4092 8.03356 15.4291 8.11169 15.4498C8.12569 15.4535 8.13975 15.4572 8.15369 15.4609C8.23681 15.4834 8.31956 15.5069 8.40187 15.5315C8.41037 15.5341 8.41881 15.5367 8.42731 15.5393C8.59875 15.591 8.7685 15.6475 8.93612 15.7087C8.94525 15.712 8.95438 15.7154 8.9635 15.7187C9.04706 15.7495 9.13012 15.7812 9.21262 15.8143C9.21481 15.8152 9.21706 15.8161 9.21925 15.817C9.299 15.8491 9.37819 15.8823 9.45687 15.9165C9.46612 15.9205 9.47544 15.9244 9.48469 15.9285C9.56156 15.9621 9.63781 15.9969 9.71362 16.0326C9.72794 16.0393 9.74219 16.0462 9.7565 16.053C9.833 16.0895 9.90906 16.1267 9.98438 16.1652C11.0713 16.7215 12.2546 17.0819 13.5013 17.2363C13.5052 17.2368 13.5091 17.2372 13.5131 17.2376L18.6306 17.7531C18.6589 17.7567 18.6871 17.7608 18.715 17.7654C19.4684 17.8892 20.063 18.3763 20.2619 19.0106C20.2914 19.1046 20.3122 19.2018 20.3236 19.3015L20.3439 19.4803L10.7526 18.745C10.5015 18.7258 10.2797 18.8884 10.2577 19.1083C10.2357 19.3282 10.4216 19.522 10.6729 19.5413L20.813 20.3187C20.8154 20.3188 20.8178 20.3188 20.8202 20.3189C20.8226 20.3191 20.8249 20.3194 20.8273 20.3196L22.7396 20.4135C22.7482 20.4139 22.7567 20.4141 22.7652 20.4141C22.7743 20.4141 22.7832 20.4128 22.7922 20.4124C22.8024 20.4118 22.8126 20.4115 22.8227 20.4104C22.8363 20.4089 22.8496 20.4063 22.863 20.4037C22.8726 20.4019 22.8822 20.4005 22.8916 20.3981C22.9062 20.3944 22.9202 20.3894 22.9344 20.3845C22.9421 20.3818 22.9499 20.3798 22.9574 20.3767C22.9788 20.3681 22.9995 20.3581 23.0193 20.3465L24.6425 19.396C24.6426 19.3959 24.6426 19.3959 24.6427 19.3958L29.4366 16.5886C29.9189 16.3049 30.5773 16.4162 30.9042 16.8367C31.2031 17.2209 31.1289 17.7434 30.7296 18.0537Z" fill="#EA8698"/>
</svg>
