<svg width="37" height="35" viewBox="0 0 37 35" fill="none" xmlns="http://www.w3.org/2000/svg">
<path d="M23.8958 20.4167H22.6779L22.2463 20.0229C23.7571 18.3604 24.6667 16.2021 24.6667 13.8542C24.6667 8.61875 20.1804 4.375 14.6458 4.375C9.11125 4.375 4.625 8.61875 4.625 13.8542C4.625 19.0896 9.11125 23.3333 14.6458 23.3333C17.1279 23.3333 19.4096 22.4729 21.1671 21.0438L21.5833 21.4521V22.6042L29.2917 29.8813L31.5887 27.7083L23.8958 20.4167ZM14.6458 20.4167C10.8071 20.4167 7.70833 17.4854 7.70833 13.8542C7.70833 10.2229 10.8071 7.29167 14.6458 7.29167C18.4846 7.29167 21.5833 10.2229 21.5833 13.8542C21.5833 17.4854 18.4846 20.4167 14.6458 20.4167Z" fill="#EA8698"/>
</svg>
