<svg width="29" height="27" viewBox="0 0 29 27" fill="none" xmlns="http://www.w3.org/2000/svg">
<path d="M25.5928 14.8162C25.6487 14.3944 25.686 13.9556 25.686 13.5C25.686 13.0444 25.6487 12.6056 25.5741 12.1837L28.7248 9.95625C29.0045 9.75375 29.0791 9.3825 28.9113 9.09562L25.9283 4.42125C25.7419 4.1175 25.3504 4.01625 25.0148 4.1175L21.3048 5.4675C20.5218 4.9275 19.7015 4.48875 18.788 4.15125L18.2287 0.57375C18.1727 0.23625 17.8558 0 17.4829 0H11.5171C11.1442 0 10.8459 0.23625 10.79 0.57375L10.2307 4.15125C9.31717 4.48875 8.47822 4.94437 7.71384 5.4675L4.00383 4.1175C3.66825 3.99937 3.27674 4.1175 3.0903 4.42125L0.107377 9.09562C-0.0790563 9.39937 -0.00448281 9.75375 0.29381 9.95625L3.44453 12.1837C3.36995 12.6056 3.31402 13.0612 3.31402 13.5C3.31402 13.9387 3.35131 14.3944 3.42588 14.8162L0.275166 17.0438C-0.00448327 17.2463 -0.0790562 17.6175 0.0887334 17.9044L3.07166 22.5788C3.25809 22.8825 3.6496 22.9837 3.98518 22.8825L7.6952 21.5325C8.47822 22.0725 9.29852 22.5112 10.212 22.8488L10.7713 26.4263C10.8459 26.7638 11.1442 27 11.5171 27H17.4829C17.8558 27 18.1727 26.7638 18.21 26.4263L18.7693 22.8488C19.6828 22.5112 20.5218 22.0556 21.2862 21.5325L24.9962 22.8825C25.3318 23.0006 25.7233 22.8825 25.9097 22.5788L28.8926 17.9044C29.0791 17.6006 29.0045 17.2463 28.7062 17.0438L25.5928 14.8162ZM14.5 18.5625C11.4239 18.5625 8.90701 16.2844 8.90701 13.5C8.90701 10.7156 11.4239 8.4375 14.5 8.4375C17.5761 8.4375 20.093 10.7156 20.093 13.5C20.093 16.2844 17.5761 18.5625 14.5 18.5625Z" fill="black" fill-opacity="0.34"/>
</svg>
