<svg width="20" height="20" viewBox="0 0 20 20" fill="none" xmlns="http://www.w3.org/2000/svg">
<path d="M16.25 12.9688C15.0152 12.9688 13.918 13.5313 13.2343 14.3973L7.348 11.5772C7.44675 11.2627 7.5 10.93 7.5 10.5859C7.5 10.1199 7.40254 9.67484 7.22608 9.26746L13.3953 5.79254C14.0836 6.54996 15.1079 7.03125 16.25 7.03125C18.3178 7.03125 20 5.45414 20 3.51562C20 1.57711 18.3178 0 16.25 0C14.1823 0 12.5 1.57711 12.5 3.51562C12.5 3.96367 12.59 4.3923 12.7537 4.78672L6.56917 8.27031C5.88133 7.53523 4.87254 7.07031 3.75 7.07031C1.68225 7.07031 0 8.64742 0 10.5859C0 12.5245 1.68225 14.1016 3.75 14.1016C5.00508 14.1016 6.118 13.5205 6.79904 12.6302L12.6682 15.4421C12.5589 15.7716 12.5 16.1216 12.5 16.4844C12.5 18.4229 14.1823 20 16.25 20C18.3178 20 20 18.4229 20 16.4844C20 14.5459 18.3178 12.9688 16.25 12.9688ZM16.25 1.17188C17.6285 1.17188 18.75 2.22328 18.75 3.51562C18.75 4.80797 17.6285 5.85938 16.25 5.85938C14.8715 5.85938 13.75 4.80797 13.75 3.51562C13.75 2.22328 14.8715 1.17188 16.25 1.17188ZM3.75 12.9297C2.3715 12.9297 1.25 11.8783 1.25 10.5859C1.25 9.29359 2.3715 8.24219 3.75 8.24219C5.1285 8.24219 6.25 9.29359 6.25 10.5859C6.25 11.8783 5.1285 12.9297 3.75 12.9297ZM16.25 18.8281C14.8715 18.8281 13.75 17.7767 13.75 16.4844C13.75 15.192 14.8715 14.1406 16.25 14.1406C17.6285 14.1406 18.75 15.192 18.75 16.4844C18.75 17.7767 17.6285 18.8281 16.25 18.8281Z" fill="#EA8698"/>
</svg>
